#define mailbox_width 92
#define mailbox_height 53
static char mailbox_bits[] = {
   0x00, 0x00, 0x00, 0x00, 0x00, 0x00, 0x00, 0x00, 0x00, 0x00, 0x00, 0xf0,
   0x00, 0x00, 0x00, 0x00, 0x00, 0x00, 0x00, 0x00, 0x00, 0x00, 0x00, 0xf0,
   0x00, 0x00, 0x00, 0x00, 0x00, 0x00, 0x00, 0x00, 0x00, 0x00, 0x00, 0xf0,
   0x00, 0x00, 0x00, 0x00, 0x00, 0x00, 0x00, 0x00, 0x00, 0x00, 0x00, 0xf0,
   0x00, 0x00, 0x00, 0x00, 0x00, 0x00, 0x00, 0x00, 0x00, 0x00, 0x00, 0xf0,
   0x00, 0x00, 0x00, 0x00, 0x00, 0x00, 0x00, 0x00, 0x00, 0x00, 0x00, 0xf0,
   0x00, 0x00, 0x00, 0x00, 0x00, 0x00, 0x00, 0x00, 0x00, 0x00, 0x00, 0xf0,
   0x00, 0x00, 0x00, 0x00, 0x00, 0x00, 0x00, 0x00, 0x00, 0x00, 0x00, 0xf0,
   0x00, 0x00, 0x00, 0x00, 0x00, 0x00, 0x00, 0x00, 0x00, 0x00, 0x00, 0xf0,
   0x00, 0x00, 0x00, 0x00, 0x00, 0x00, 0x00, 0x00, 0x00, 0x00, 0x00, 0xf0,
   0x00, 0x00, 0x00, 0x00, 0x00, 0x00, 0x00, 0x00, 0x00, 0x00, 0x00, 0xf0,
   0x00, 0x00, 0x00, 0x00, 0x00, 0x00, 0x00, 0x00, 0x00, 0x00, 0x00, 0xf0,
   0x00, 0xfe, 0xff, 0xff, 0xff, 0xff, 0xff, 0xff, 0x00, 0x00, 0x00, 0xf0,
   0x00, 0x0e, 0x00, 0x00, 0x00, 0x00, 0x00, 0xf0, 0x00, 0x00, 0x00, 0xf0,
   0x00, 0x36, 0x00, 0x00, 0x00, 0x00, 0x00, 0xcc, 0x00, 0x00, 0x00, 0xf0,
   0x00, 0xc6, 0x00, 0x00, 0x00, 0x00, 0x00, 0xc3, 0x00, 0x00, 0x00, 0xf0,
   0x00, 0x06, 0x03, 0x00, 0x00, 0x00, 0xe0, 0xc0, 0x00, 0x00, 0x00, 0xf0,
   0x00, 0x06, 0x0c, 0x00, 0x00, 0x00, 0x18, 0xc0, 0x00, 0x00, 0x00, 0xf0,
   0x00, 0x06, 0x30, 0x00, 0x00, 0x00, 0x06, 0xc0, 0x00, 0x00, 0x00, 0xf0,
   0x00, 0x06, 0xc0, 0x00, 0x00, 0xc0, 0x01, 0xc0, 0x00, 0x00, 0x00, 0xf0,
   0x00, 0x06, 0x00, 0x03, 0x00, 0x30, 0x00, 0xc0, 0x00, 0x00, 0x00, 0xf0,
   0x00, 0x06, 0x00, 0x0c, 0x00, 0x0e, 0x00, 0xc0, 0x00, 0x00, 0x00, 0xf0,
   0x00, 0x06, 0x00, 0x3c, 0x80, 0x19, 0x00, 0xc0, 0x00, 0x00, 0x00, 0xf0,
   0x00, 0x06, 0x80, 0xc3, 0x60, 0xe0, 0x01, 0xc0, 0x00, 0x00, 0x00, 0xf0,
   0x00, 0x06, 0x70, 0x00, 0x1b, 0x00, 0x1e, 0xc0, 0x00, 0x00, 0x00, 0xf0,
   0x00, 0x06, 0x0f, 0xff, 0xff, 0xff, 0xff, 0xff, 0xff, 0xff, 0x03, 0xf0,
   0x00, 0xe6, 0x00, 0x03, 0x00, 0x00, 0x00, 0x00, 0x00, 0x00, 0x03, 0xf0,
   0x00, 0x1e, 0x00, 0x03, 0x00, 0x00, 0x00, 0x00, 0x00, 0x7c, 0x03, 0xf0,
   0x00, 0xfe, 0xff, 0x73, 0x07, 0x00, 0x00, 0x00, 0x00, 0x7c, 0x03, 0xf0,
   0x00, 0xfe, 0xff, 0x03, 0x00, 0x00, 0x00, 0x00, 0x00, 0x7c, 0x03, 0xf0,
   0x00, 0x00, 0x00, 0xe3, 0x0e, 0x00, 0x00, 0x00, 0x00, 0x7c, 0x03, 0xf0,
   0x00, 0x00, 0x00, 0x03, 0x00, 0x00, 0x00, 0x00, 0x00, 0x00, 0x03, 0xf0,
   0x00, 0x00, 0x00, 0x03, 0x00, 0x00, 0x00, 0x00, 0x00, 0x00, 0x03, 0xf0,
   0x00, 0x00, 0x00, 0x03, 0x00, 0x00, 0x00, 0x00, 0x00, 0x00, 0x03, 0xf0,
   0x00, 0x00, 0x00, 0x03, 0x00, 0xe8, 0xba, 0x0b, 0x00, 0x00, 0x03, 0xf0,
   0x00, 0x00, 0x00, 0x03, 0x00, 0x00, 0x00, 0x00, 0x00, 0x00, 0x03, 0xf0,
   0x00, 0x00, 0x00, 0x03, 0x00, 0xe0, 0x3d, 0x1e, 0x00, 0x00, 0x03, 0xf0,
   0x00, 0x00, 0x00, 0x03, 0x00, 0x00, 0x00, 0x00, 0x00, 0x00, 0x03, 0xf0,
   0x00, 0x00, 0x00, 0x03, 0x00, 0x00, 0x00, 0x00, 0x00, 0x00, 0x03, 0xf0,
   0x00, 0x00, 0x00, 0x03, 0x00, 0x00, 0x00, 0x00, 0x00, 0x00, 0x03, 0xf0,
   0x00, 0x00, 0x00, 0x03, 0x00, 0x00, 0x00, 0x00, 0x00, 0x00, 0x03, 0xf0,
   0x00, 0x00, 0x00, 0x03, 0x00, 0x00, 0x00, 0x00, 0x00, 0x00, 0x03, 0xf0,
   0x00, 0x00, 0x00, 0xff, 0xff, 0xff, 0xff, 0xff, 0xff, 0xff, 0x03, 0xf0,
   0x00, 0x00, 0x00, 0xff, 0xff, 0xff, 0xff, 0xff, 0xff, 0xff, 0x03, 0xf0,
   0x00, 0x00, 0x00, 0x00, 0x00, 0x00, 0x00, 0x00, 0x00, 0x00, 0x00, 0xf0,
   0x00, 0x00, 0x00, 0x00, 0x00, 0x00, 0x00, 0x00, 0x00, 0x00, 0x00, 0xf0,
   0x00, 0x00, 0x00, 0x00, 0x00, 0x00, 0x00, 0x00, 0x00, 0x00, 0x00, 0xf0,
   0x00, 0x00, 0x00, 0x00, 0x00, 0x00, 0x00, 0x00, 0x00, 0x00, 0x00, 0xf0,
   0x00, 0x00, 0x00, 0x00, 0x00, 0x00, 0x00, 0x00, 0x00, 0x00, 0x00, 0xf0,
   0x00, 0x00, 0x00, 0x00, 0x00, 0x00, 0x00, 0x00, 0x00, 0x00, 0x00, 0xf0,
   0x00, 0x00, 0x00, 0x00, 0x00, 0x00, 0x00, 0x00, 0x00, 0x00, 0x00, 0xf0,
   0x00, 0x00, 0x00, 0x00, 0x00, 0x00, 0x00, 0x00, 0x00, 0x00, 0x00, 0xf0,
   0x00, 0x00, 0x00, 0x00, 0x00, 0x00, 0x00, 0x00, 0x00, 0x00, 0x00, 0xf0};
